PathFileType	4	(X/Y/Z)	/Users/niels/Desktop/University/Third Semester/Perception and Action/Exam/Gymnastics Motion Tracking/Code for Gym Tracking/Analyzed Data/Webcam_Backflip/id2_2_pure_Sports2D/id2_2_pure_Sports2D_px_person00.trc
DataRate	CameraRate	NumFrames	NumMarkers	Units	OrigDataRate	OrigDataStartFrame	OrigNumFrames
29.87551867219917	29.87551867219917	12	22	m	29.87551867219917	210	241
Frame#	Time	Hip			RHip			RKnee			RAnkle			RBigToe			RSmallToe			RHeel			LHip			LKnee			LAnkle			LBigToe			LSmallToe			LHeel			Neck			Head			Nose			RShoulder			RElbow			RWrist			LShoulder			LElbow			LWrist		
		X1	Y1	Z1	X2	Y2	Z2	X3	Y3	Z3	X4	Y4	Z4	X5	Y5	Z5	X6	Y6	Z6	X7	Y7	Z7	X8	Y8	Z8	X9	Y9	Z9	X10	Y10	Z10	X11	Y11	Z11	X12	Y12	Z12	X13	Y13	Z13	X14	Y14	Z14	X15	Y15	Z15	X16	Y16	Z16	X17	Y17	Z17	X18	Y18	Z18	X19	Y19	Z19	X20	Y20	Z20	X21	Y21	Z21	X22	Y22	Z22
210	7.029166666666667	0.9380436506784035	-0.5490408380378382	0.0	0.9407530666163233	-0.5507856347473968	0.0	0.9803814489461763	-0.660361089054795	0.0	0.9358938929498244	-0.7791066532311189	0.0	0.988082804248784	-0.8002248776132052	0.0	0.9726489278266415	-0.8035893962930243	0.0	0.9240950279195428	-0.7940800174567175	0.0	0.931469698828035	-0.549752546420216	0.0	0.9451445621496448	-0.6639892981147393	0.0	0.9321816839056923	-0.7809048504491702	0.0	0.986457855109652	-0.8003460503266134	0.0	0.9775965104971086	-0.7975390907459319	0.0	0.9225574380220602	-0.7965322182151413	0.0	0.9613586996656678	-0.39574650006022033	0.0	0.9980545723062556	-0.3315746238191698	0.0	1.0032724205992465	-0.36809405555335106	0.0	0.9402779640246319	-0.41410585718856635	0.0	0.9264764524979477	-0.4938013774508895	0.0	0.9659610561749544	-0.562404425878166	0.0	0.9577904897195761	-0.41741457450065483	0.0	0.9538240470059627	-0.4934997285451517	0.0	0.978645650427428	-0.5525631137815523	0.0
211	7.062638888888889	0.937600147163927	-0.5527534444414731	0.0	0.9399302946237312	-0.5539961159159377	0.0	0.9770571895317886	-0.6652666020082045	0.0	0.9317937375798058	-0.7842521776673034	0.0	0.9837556165128665	-0.8049634216427137	0.0	0.9681155539207865	-0.8077618859688529	0.0	0.9188288656277641	-0.7985399417857971	0.0	0.9336674522273188	-0.5529380727831934	0.0	0.9463164203081471	-0.6677830220991521	0.0	0.930914214492551	-0.7845375800455858	0.0	0.9852770540956629	-0.803888046531052	0.0	0.9768381314192932	-0.8010169523472535	0.0	0.9202322951130131	-0.7998939918003617	0.0	0.9605362085066191	-0.3985226485446053	0.0	0.9960090261277197	-0.33555304906764527	0.0	1.0025833657295367	-0.37188372751239984	0.0	0.9398082952546344	-0.4178560894361703	0.0	0.9284845621827373	-0.4978008359846024	0.0	0.9705892782665406	-0.5653958295004251	0.0	0.9580916083706141	-0.4206985805850028	0.0	0.9573176850732859	-0.49668379697220655	0.0	0.9861595394254151	-0.5526374867992958	0.0
212	7.096111111111111	0.9372971954496161	-0.5574474237333437	0.0	0.9393123725358447	-0.558184134556294	0.0	0.9724847698740151	-0.6708706505249329	0.0	0.9288636448798976	-0.7906600169747795	0.0	0.9800706608912485	-0.8103019369519233	0.0	0.9647265156308913	-0.8127769138774383	0.0	0.9149437275286749	-0.8044023104926664	0.0	0.9359945858970691	-0.5570734304993474	0.0	0.9482912517590835	-0.6723191541556791	0.0	0.9300754644223314	-0.789168572903727	0.0	0.9840309320669924	-0.8081001067262116	0.0	0.9759154828788417	-0.8052508824915201	0.0	0.918707762305283	-0.8042630804484198	0.0	0.9598096795293655	-0.40201728397985403	0.0	0.9933197839583439	-0.3393455025164761	0.0	1.001603582165045	-0.37569921844383625	0.0	0.9397771501097113	-0.4223328105576644	0.0	0.9312513745869957	-0.5025603578151656	0.0	0.9745672831141264	-0.5697377349446172	0.0	0.9582179990002113	-0.4246754662488979	0.0	0.960425433291214	-0.5005274068703818	0.0	0.9936397045405204	-0.5533414438671215	0.0
213	7.129583333333334	0.93707936645518	-0.562656999009092	0.0	0.9388528675001376	-0.5628942779100805	0.0	0.9672473931320381	-0.6765396261774769	0.0	0.9271416325049163	-0.7973414691298475	0.0	0.9771254601723185	-0.8157214481635344	0.0	0.962685976522859	-0.8181259018887646	0.0	0.9126750914014268	-0.8108327607430523	0.0	0.9379405362845482	-0.5617143558574456	0.0	0.9507783474943919	-0.6771261229774549	0.0	0.929711355657834	-0.7942143164728631	0.0	0.9828335583956431	-0.8125430593619681	0.0	0.9748276037902953	-0.8097964766572385	0.0	0.9180543220094769	-0.8091477390846699	0.0	0.9591160562802575	-0.40602749055143467	0.0	0.9903158395106051	-0.3426724369796942	0.0	1.0003330346125174	-0.37931283000319466	0.0	0.9401876912207235	-0.42716144301632647	0.0	0.934580991198465	-0.5077445027865094	0.0	0.9777504541616204	-0.5749632541379979	0.0	0.9579031201076375	-0.42902987843040546	0.0	0.9626306648232107	-0.5047920838624428	0.0	1.0002484099985844	-0.5546367701749536	0.0
214	7.163055555555555	0.9369493312249655	-0.567875821172545	0.0	0.9385747673105801	-0.5676077538822148	0.0	0.9621007499553562	-0.6818034361015437	0.0	0.9264454143501739	-0.8034029421381598	0.0	0.9749714637711364	-0.8208527834035779	0.0	0.9619333720796457	-0.8233527738812509	0.0	0.9119341202069245	-0.8170089341356573	0.0	0.9391616621163908	-0.5663512040134399	0.0	0.953093280953537	-0.6817712642564728	0.0	0.9297642748211885	-0.7991047223846722	0.0	0.9817826323323542	-0.8167550092644243	0.0	0.9737202189340253	-0.8141363302439508	0.0	0.9181130861084259	-0.8140074963254247	0.0	0.9583717090499767	-0.4102211028635985	0.0	0.9873056730249961	-0.3453899982043358	0.0	0.9987975853328993	-0.3825437407359594	0.0	0.9409265954717254	-0.4319280814705781	0.0	0.938088432349186	-0.5129154970386482	0.0	0.979924002019471	-0.5804633388686496	0.0	0.957021888718941	-0.4333669644247974	0.0	0.9636728799343411	-0.5090975763477729	0.0	1.0052160717349403	-0.5563811526742138	0.0
215	7.196527777777778	0.9369718925146395	-0.5725997839231055	0.0	0.9385620494690158	-0.5718608119330192	0.0	0.9577029910800371	-0.6863742956882617	0.0	0.9264814527131898	-0.808265129191173	0.0	0.9736718177421247	-0.8253841151951873	0.0	0.9621731015924884	-0.8280484448288667	0.0	0.912397261321463	-0.8223481099408808	0.0	0.9395929269223637	-0.570524470980649	0.0	0.9545516784079353	-0.6859057265604649	0.0	0.9301609380319353	-0.8033311399358015	0.0	0.9810016349058427	-0.8202875552879108	0.0	0.9728553903909847	-0.8177550813689964	0.0	0.9186701904278732	-0.818376515842655	0.0	0.957539773488236	-0.4141699484699863	0.0	0.9845436783273205	-0.34739100189746125	0.0	0.9970826340189115	-0.38516261588279405	0.0	0.9418147494221114	-0.43620973027135274	0.0	0.9412729705013	-0.5175638190180497	0.0	0.9808993690205873	-0.5855744304934564	0.0	0.9556217111641488	-0.4372292895824962	0.0	0.9635263527572044	-0.5129332293546528	0.0	1.0079621777441812	-0.5583647933811839	0.0
216	7.23	0.9372364587762217	-0.5763593071180233	0.0	0.9388694876173445	-0.5752946255629195	0.0	0.954404904964567	-0.690050631486443	0.0	0.9268964101766284	-0.8116733701716983	0.0	0.9731824674613594	-0.8289656227839619	0.0	0.9628950234183634	-0.8318193251013215	0.0	0.9135819828468281	-0.8264866589067481	0.0	0.9395183667070955	-0.5738852224963857	0.0	0.9549624070627359	-0.689256470505066	0.0	0.9308236605942211	-0.8064764011201304	0.0	0.9805579601911206	-0.8227917875342793	0.0	0.9724320298418528	-0.820256609753381	0.0	0.919551494656419	-0.8218452974594583	0.0	0.9566806061449471	-0.41737044835168885	0.0	0.9821960303276965	-0.34859744942244597	0.0	0.9953709401248209	-0.3869283137050771	0.0	0.9426494225687859	-0.4395855127280438	0.0	0.9436327677216965	-0.5211909024168611	0.0	0.9806401864168337	-0.5897181980406283	0.0	0.9539446906596615	-0.44015209563620483	0.0	0.9623838127747847	-0.5157956025906459	0.0	1.0081990766675921	-0.560328670695224	0.0
217	7.263472222222222	0.9378128876797119	-0.5787626543433553	0.0	0.9394713117395855	-0.5776410660981321	0.0	0.9522092401079192	-0.6926061863316993	0.0	0.9273578291800018	-0.8135479399123843	0.0	0.9732656714175307	-0.8312549390097823	0.0	0.9634965851109676	-0.8343140415235522	0.0	0.9149615806580119	-0.8291405967764501	0.0	0.939428385644192	-0.5761839660479345	0.0	0.954623496026102	-0.6915816262508092	0.0	0.93165587173038	-0.8082425188464956	0.0	0.9803342672874491	-0.824117937306123	0.0	0.9724175887486902	-0.8214627379322204	0.0	0.9206318016404905	-0.823999890325138	0.0	0.9559351910294617	-0.41931837237655484	0.0	0.9803036920673062	-0.34898650255477026	0.0	0.9939019936191927	-0.3876521931340526	0.0	0.9432676415453862	-0.4416575087356971	0.0	0.944791145202219	-0.5233727299008374	0.0	0.9793185960380563	-0.5924886505919373	0.0	0.9523639929165832	-0.44177186147583913	0.0	0.9605867988986895	-0.5173389734711449	0.0	1.0059882372256337	-0.5619947147289863	0.0
218	7.296944444444445	0.9387218928196883	-0.5795569087766407	0.0	0.9402682613181105	-0.5787166709315059	0.0	0.9508588233942012	-0.6937916848758797	0.0	0.9276606164991833	-0.8138505047191209	0.0	0.9735814015329769	-0.8320265928176956	0.0	0.9635188495869764	-0.8352975709344136	0.0	0.9161409092004085	-0.8300961759221691	0.0	0.9397497584451084	-0.5772568990864415	0.0	0.9539360339635813	-0.6926631023472855	0.0	0.9325585390498136	-0.8084433304127345	0.0	0.9801213912069701	-0.8242789732123392	0.0	0.9726509605454169	-0.8213929285021482	0.0	0.9218250450977179	-0.8244947081901748	0.0	0.9554281660151389	-0.4196664590243954	0.0	0.9788065416304369	-0.34853024612466194	0.0	0.992846807231229	-0.3872034539119036	0.0	0.9436111269275202	-0.44211742625248296	0.0	0.9446096058399794	-0.5238090080920279	0.0	0.977234779006381	-0.593640174814744	0.0	0.9512112274780045	-0.4419012977408767	0.0	0.9585362326076342	-0.5174176208110801	0.0	1.001740161120688	-0.5631258441741005	0.0
219	7.330416666666666	0.9399055133209845	-0.5786864712368975	0.0	0.9411310027275305	-0.5784579572021684	0.0	0.9499904559701878	-0.693467446252875	0.0	0.9277656119864849	-0.8126363636073985	0.0	0.9737933832572958	-0.8313344715029001	0.0	0.96277701839436	-0.8347975945484291	0.0	0.9169943868460168	-0.8293601501678413	0.0	0.9406378123866351	-0.577051492074292	0.0	0.9531494534022954	-0.6923762167437034	0.0	0.9334569922756432	-0.8070558313613316	0.0	0.9798150554722665	-0.8233556663967371	0.0	0.9730535144706952	-0.820191155205538	0.0	0.9230888603804144	-0.823242330348815	0.0	0.9551771753951043	-0.4183526112897957	0.0	0.9776277176857902	-0.3471191926777926	0.0	0.9922133574649038	-0.3855126327412672	0.0	0.9437277332461576	-0.44082888189787867	0.0	0.9432152602119834	-0.5223880669555298	0.0	0.9746769952106054	-0.5930322755050073	0.0	0.9506117283996026	-0.4405144243080903	0.0	0.9565925852674895	-0.5160068392712422	0.0	0.9961339001964167	-0.5635899737244174	0.0
220	7.363888888888889	0.9411992231039428	-0.5763139522093431	0.0	0.941920435947595	-0.5769392856623317	0.0	0.949296951917027	-0.6917005207738541	0.0	0.9277243492820468	-0.8101699883678408	0.0	0.973583369467868	-0.8295641609829452	0.0	0.9612756669135843	-0.8331579503034565	0.0	0.9175982899564832	-0.8272286807950304	0.0	0.9419287355579606	-0.5756405577073991	0.0	0.9523723236965083	-0.6907550636111806	0.0	0.934322388406696	-0.8042858577240783	0.0	0.9794209306612758	-0.821443103880145	0.0	0.9736101375970639	-0.8180521425899671	0.0	0.9244423008255739	-0.8204972655329795	0.0	0.9551108383122192	-0.4155806151581934	0.0	0.9767163780177978	-0.34461241143802274	0.0	0.9918741935001427	-0.3826045047161807	0.0	0.9437212915019603	-0.4378709372483265	0.0	0.940925166732304	-0.519209235727935	0.0	0.9718441631548291	-0.5906106469135625	0.0	0.9504891525108616	-0.4377161031758127	0.0	0.9549487153523151	-0.5131392955866331	0.0	0.9899330622707951	-0.563352215853669	0.0
221	7.3973611111111115	0.9423477483532424	-0.5727466773186841	0.0	0.9424566625223847	-0.5742884014772133	0.0	0.9486217781812103	-0.6887108488665419	0.0	0.9275524134262985	-0.8068845748994351	0.0	0.9727161733892249	-0.8271542711556981	0.0	0.9590982051645734	-0.8308051367108501	0.0	0.9179915091923265	-0.8241474188298459	0.0	0.9432920165679703	-0.5731351873121605	0.0	0.9517145099299674	-0.6879703013382837	0.0	0.9351857534867041	-0.8004839306285584	0.0	0.9789820356979765	-0.8186094972396089	0.0	0.9742555718671698	-0.8151218642652399	0.0	0.9259735451090757	-0.816698200981758	0.0	0.9551593122957069	-0.4116805484448343	0.0	0.9760330636978303	-0.34098094684912134	0.0	0.9916827839105525	-0.37861514781775363	0.0	0.943718416425175	-0.4335113085002999	0.0	0.9381544518807261	-0.514532354380565	0.0	0.9688581549600693	-0.5864741564267474	0.0	0.9507172183562503	-0.4337171552216546	0.0	0.9535677087443009	-0.508950087217546	0.0	0.9837708895092125	-0.5623552020334536	0.0
